<svg id="visual" viewBox="0 0 960 540" width="960" height="540" xmlns="http://www.w3.org/2000/svg" xmlns:xlink="http://www.w3.org/1999/xlink" version="1.1"><rect x="0" y="0" width="960" height="540" fill="#001220"></rect><defs><linearGradient id="grad1_0" x1="43.8%" y1="100%" x2="100%" y2="0%"><stop offset="14.444444444444446%" stop-color="#001220" stop-opacity="1"></stop><stop offset="85.55555555555554%" stop-color="#001220" stop-opacity="1"></stop></linearGradient></defs><defs><linearGradient id="grad2_0" x1="0%" y1="100%" x2="56.3%" y2="0%"><stop offset="14.444444444444446%" stop-color="#001220" stop-opacity="1"></stop><stop offset="85.55555555555554%" stop-color="#001220" stop-opacity="1"></stop></linearGradient></defs><g transform="translate(960, 540)"><path d="M-486 0C-469.2 -82.1 -452.4 -164.3 -414 -239C-375.6 -313.7 -315.6 -381 -243 -420.9C-170.4 -460.8 -85.2 -473.4 0 -486L0 0Z" fill="#6455ff"></path></g><g transform="translate(0, 0)"><path d="M486 0C473.4 85.2 460.8 170.4 420.9 243C381 315.6 313.7 375.6 239 414C164.3 452.4 82.1 469.2 0 486L0 0Z" fill="#6455ff"></path></g></svg>